<svg width="159" height="28" viewBox="0 0 159 28" fill="none" xmlns="http://www.w3.org/2000/svg">
<path d="M40 4.60645H44.6044L55.1248 15.5517V4.60645H59.7818V22.9975H55.2038L44.657 12.026V22.9975H40V4.60645Z" fill="white"/>
<path d="M68.2859 13.7888L61.6556 4.60645H66.9967L71.596 10.7318L76.1953 4.60645H81.5364L74.8798 13.7888L81.5364 22.9975H76.1953L71.596 16.8722L66.9704 22.9975H61.6293L68.2859 13.7888Z" fill="white"/>
<path d="M89.5142 8.52673H82.4517V4.60645H101.26V8.52673H94.1712V22.9975H89.5142V8.52673Z" fill="white"/>
<path d="M102.701 4.60657H112.684C114.824 4.60657 116.534 5.16786 117.815 6.29045C119.095 7.41304 119.735 8.9829 119.735 11C119.735 13.0698 119.095 14.6748 117.815 15.8149C116.552 16.9375 114.842 17.4988 112.684 17.4988H107.358V22.9977H102.701V4.60657ZM111.947 13.5785C112.877 13.5785 113.605 13.3855 114.131 12.9997C114.675 12.6138 114.947 11.9472 114.947 11C114.947 10.0529 114.684 9.40387 114.158 9.05306C113.631 8.70226 112.895 8.52685 111.947 8.52685H107.358V13.5785H111.947Z" fill="white"/>
<path d="M130.288 23.3923C128.429 23.3923 126.745 22.9889 125.237 22.1821C123.746 21.3752 122.562 20.2526 121.685 18.8143C120.825 17.3584 120.396 15.6921 120.396 13.8153C120.396 11.9385 120.825 10.2721 121.685 8.81627C122.562 7.36041 123.746 6.22906 125.237 5.4222C126.745 4.61534 128.429 4.21191 130.288 4.21191C132.13 4.21191 133.796 4.61534 135.287 5.4222C136.796 6.22906 137.98 7.36041 138.839 8.81627C139.699 10.2721 140.129 11.9385 140.129 13.8153C140.129 15.6921 139.699 17.3584 138.839 18.8143C137.98 20.2526 136.796 21.3752 135.287 22.1821C133.796 22.9889 132.13 23.3923 130.288 23.3923Z" fill="white"/>
<path d="M141.965 4.60657H151.948C154.088 4.60657 155.798 5.16786 157.079 6.29045C158.359 7.41304 158.999 8.9829 158.999 11C158.999 13.0698 158.359 14.6748 157.079 15.8149C155.816 16.9375 154.106 17.4988 151.948 17.4988H146.622V22.9977H141.965V4.60657ZM151.211 13.5785C152.141 13.5785 152.869 13.3855 153.395 12.9997C153.939 12.6138 154.211 11.9472 154.211 11C154.211 10.0529 153.948 9.40387 153.422 9.05306C152.895 8.70226 152.159 8.52685 151.211 8.52685H146.622V13.5785H151.211Z" fill="white"/>
<path d="M125.499 15.5994C124.664 14.7641 124.246 14.3465 124.246 13.8275C124.246 13.3086 124.664 12.8909 125.499 12.0557L128.467 9.08785C129.302 8.25259 129.72 7.83496 130.239 7.83496C130.758 7.83496 131.175 8.25259 132.011 9.08785L134.978 12.0557C135.814 12.8909 136.231 13.3086 136.231 13.8275C136.231 14.3465 135.814 14.7641 134.978 15.5994L132.011 18.5672C131.175 19.4025 130.758 19.8201 130.239 19.8201C129.72 19.8201 129.302 19.4025 128.467 18.5672L125.499 15.5994Z" fill="#171717"/>
<rect x="9.5" y="9.5" width="17" height="17" rx="8.5" stroke="white" stroke-width="3"/>
<rect width="20" height="20" rx="5" fill="#AEB1FF"/>
</svg>
